<svg width="273" height="148" viewBox="0 0 273 148" fill="none" xmlns="http://www.w3.org/2000/svg">
<path d="M0 83.2133C0 78.7374 4.03274 77.2873 10.2399 77.2873C12.6032 77.2873 14.8714 77.4458 17.6129 77.8869C17.7701 78.9269 17.7701 80.5032 17.6129 81.5426C15.2814 81.2586 13.202 81.1332 10.9965 81.1332C7.373 81.1332 4.56876 81.3537 4.56876 84.1589V92.4794C4.56876 95.2529 7.373 95.5051 10.9965 95.5051C13.1703 95.5051 15.5962 95.1901 17.6757 94.8117C17.9595 95.9145 18.0849 97.2385 18.0849 98.4681C15.2497 99.0988 12.3827 99.4131 10.2399 99.4131C4.03274 99.4131 0 97.9953 0 93.5194V83.2133Z" fill="#0A2240"/>
<path d="M50.282 84.1903C50.282 81.4485 47.8244 81.1329 44.7996 81.1329C41.7749 81.1329 39.3172 81.4485 39.3172 84.1903V92.448C39.3172 95.1581 41.7749 95.5055 44.7996 95.5055C47.8244 95.5055 50.282 95.1581 50.282 92.448V84.1903ZM54.8818 93.3937C54.8818 97.9006 50.8491 99.4135 44.7996 99.4135C38.7185 99.4135 34.7168 97.9006 34.7168 93.3937V83.3074C34.7168 78.8322 38.7185 77.2876 44.7996 77.2876C50.8491 77.2876 54.8818 78.8322 54.8818 83.3074V93.3937Z" fill="#0A2240"/>
<path d="M69.844 77.7286C71.2303 77.6031 73.2787 77.6031 74.6332 77.7286L80.7771 93.1729L86.8265 77.7286C88.1501 77.6031 90.1978 77.6031 91.4587 77.7286L82.9199 99.0355C81.5646 99.1617 79.9262 99.1617 78.6033 99.0355L69.844 77.7286Z" fill="#0A2240"/>
<path d="M107.617 99.0354V77.7284H124.001C124.159 78.8002 124.159 80.3765 124.001 81.4482H112.217V86.4596H123.686C123.844 87.5314 123.844 89.0759 123.686 90.1153H112.217V95.3163H124.001C124.159 96.3563 124.159 97.9953 124.001 99.0354H107.617Z" fill="#0A2240"/>
<path d="M145.926 84.2536V99.0356C144.477 99.1927 142.807 99.1927 141.327 99.0356V77.7286C142.902 77.6031 144.761 77.6031 146.336 77.7286L156.954 92.8573V77.7286C158.592 77.6031 160.042 77.6031 161.554 77.7286V99.0356C159.853 99.1617 158.12 99.1617 156.419 99.0356L145.926 84.2536Z" fill="#0A2240"/>
<path d="M189.024 82.6774L185.778 90.778H192.269L189.024 82.6774ZM193.75 94.4337H184.298L182.47 99.035C181.179 99.1618 179.099 99.1618 177.776 99.035L186.85 77.7287C188.237 77.6026 189.906 77.6026 191.293 77.7287L200.367 99.035C199.044 99.1618 196.901 99.1618 195.578 99.035L193.75 94.4337Z" fill="#0A2240"/>
<path d="M221.188 84.2536V99.0356C219.739 99.1927 218.069 99.1927 216.588 99.0356V77.7286C218.164 77.6031 220.023 77.6031 221.598 77.7286L232.216 92.8573V77.7286C233.854 77.6031 235.304 77.6031 236.816 77.7286V99.0356C235.115 99.1617 233.382 99.1617 231.681 99.0356L221.188 84.2536Z" fill="#0A2240"/>
<path d="M260.6 81.4483H253.007C252.85 80.4083 252.85 78.8003 253.007 77.7286H272.762C272.889 78.8003 272.889 80.4083 272.762 81.4483H265.169V99.0355C263.877 99.1617 261.924 99.1617 260.6 99.0355V81.4483Z" fill="#0A2240"/>
<path d="M64.0193 119.005C64.0193 116.652 65.8241 115.891 68.5729 115.891C69.5505 115.891 70.4945 115.973 71.62 116.189C71.7032 116.752 71.7032 117.581 71.62 118.127C70.6925 117.978 69.8647 117.912 68.9703 117.912C67.5629 117.912 66.4373 118.028 66.4373 119.502V123.875C66.4373 125.333 67.5629 125.465 68.9703 125.465C69.8482 125.465 70.8087 125.283 71.653 125.101C71.8022 125.681 71.8689 126.377 71.8689 127.023C70.676 127.354 69.4673 127.52 68.5729 127.52C65.8241 127.52 64.0193 126.774 64.0193 124.422V119.005Z" fill="#C9A978"/>
<path d="M85.1488 119.353C85.1488 118.077 84.1883 117.912 83.0951 117.912C82.0191 117.912 81.0421 118.077 81.0421 119.353V124.024C81.0421 125.3 82.0191 125.466 83.0951 125.466C84.1883 125.466 85.1488 125.3 85.1488 124.024V119.353ZM87.5668 124.472C87.5668 126.758 85.7779 127.519 83.0951 127.519C80.3958 127.519 78.624 126.758 78.624 124.472V118.922C78.624 116.653 80.3958 115.891 83.0951 115.891C85.7779 115.891 87.5668 116.653 87.5668 118.922V124.472Z" fill="#C9A978"/>
<path d="M103.165 120.314L101.045 124.339C100.449 124.405 99.9526 124.405 99.3558 124.339L97.2203 120.281V127.321C96.541 127.387 95.5145 127.387 94.8022 127.321V116.122C95.5145 116.056 96.6737 116.056 97.3523 116.122L100.217 121.622L103.082 116.122C103.777 116.056 104.904 116.056 105.583 116.122V127.321C104.904 127.387 103.861 127.387 103.165 127.321V120.314Z" fill="#C9A978"/>
<path d="M121.396 120.314L119.277 124.339C118.681 124.405 118.184 124.405 117.588 124.339L115.452 120.281V127.321C114.773 127.387 113.746 127.387 113.034 127.321V116.122C113.746 116.056 114.905 116.056 115.584 116.122L118.449 121.622L121.314 116.122C122.009 116.056 123.135 116.056 123.815 116.122V127.321C123.135 127.387 122.092 127.387 121.396 127.321V120.314Z" fill="#C9A978"/>
<path d="M131.265 127.321V116.123H138.221C138.303 116.686 138.303 117.514 138.221 118.077H133.683V120.711H138.055C138.138 121.275 138.138 122.086 138.055 122.632H133.683V125.366H138.221C138.303 125.913 138.303 126.774 138.221 127.321H131.265Z" fill="#C9A978"/>
<path d="M151.236 119.519C151.236 118.309 150.259 118.144 149.067 118.144H147.758V121.307H149.067C150.259 121.307 151.236 121.142 151.236 119.982V119.519ZM153.654 120.446C153.654 121.887 152.825 122.683 151.385 123.047C152.378 124.405 153.19 125.946 153.835 127.321C153.124 127.387 152.015 127.387 151.302 127.321C150.69 126.028 149.911 124.588 148.967 123.296H147.758V127.321C147.03 127.387 146.07 127.387 145.341 127.321V116.122H149.067C151.899 116.122 153.654 116.885 153.654 119.022V120.446Z" fill="#C9A978"/>
<path d="M160.625 119.005C160.625 116.652 162.429 115.891 165.178 115.891C166.155 115.891 167.099 115.973 168.225 116.189C168.308 116.752 168.308 117.581 168.225 118.127C167.298 117.978 166.469 117.912 165.575 117.912C164.168 117.912 163.042 118.028 163.042 119.502V123.875C163.042 125.333 164.168 125.465 165.575 125.465C166.453 125.465 167.413 125.283 168.258 125.101C168.407 125.681 168.473 126.377 168.473 127.023C167.281 127.354 166.073 127.52 165.178 127.52C162.429 127.52 160.625 126.774 160.625 124.422V119.005Z" fill="#C9A978"/>
<path d="M175.445 116.123C176.157 116.056 177.184 116.056 177.863 116.123V127.321C177.184 127.388 176.157 127.388 175.445 127.321V116.123Z" fill="#C9A978"/>
<path d="M189.487 118.922L188.212 122.981H190.745L189.487 118.922ZM191.342 124.903H187.616L186.87 127.321C186.175 127.387 185.099 127.387 184.404 127.321L188.345 116.123C189.073 116.056 189.951 116.056 190.679 116.123L194.62 127.321C193.908 127.387 192.816 127.387 192.103 127.321L191.342 124.903Z" fill="#C9A978"/>
<path d="M201.161 127.321V116.123C201.89 116.056 202.9 116.056 203.579 116.123V125.366H208.033C208.116 125.913 208.116 126.774 208.033 127.321H201.161Z" fill="#C9A978"/>
<path d="M70.1464 139.396C70.1464 138.187 69.1694 138.021 67.9765 138.021H66.6688V141.185H67.9765C69.1694 141.185 70.1464 141.02 70.1464 139.86V139.396ZM72.5638 140.324C72.5638 141.765 71.736 142.561 70.2955 142.925C71.289 144.283 72.1003 145.823 72.746 147.198C72.0337 147.265 70.9247 147.265 70.2124 147.198C69.5998 145.906 68.8215 144.466 67.8775 143.173H66.6688V147.198C65.94 147.265 64.9795 147.265 64.2507 147.198V136H67.9765C70.8085 136 72.5638 136.763 72.5638 138.9V140.324Z" fill="#C9A978"/>
<path d="M79.6672 147.198V136H86.6224C86.7056 136.564 86.7056 137.392 86.6224 137.955H82.0853V140.589H86.4567C86.5399 141.152 86.5399 141.964 86.4567 142.51H82.0853V145.244H86.6224C86.7056 145.791 86.7056 146.652 86.6224 147.198H79.6672Z" fill="#C9A978"/>
<path d="M97.8329 138.8L96.5576 142.858H99.0911L97.8329 138.8ZM99.6879 144.781H95.9615L95.2162 147.199C94.5211 147.265 93.4444 147.265 92.7493 147.199L96.6902 136C97.419 135.934 98.2963 135.934 99.0251 136L102.966 147.199C102.254 147.265 101.161 147.265 100.449 147.199L99.6879 144.781Z" fill="#C9A978"/>
<path d="M109.424 147.198V136C110.153 135.934 111.163 135.934 111.842 136V145.244H116.297C116.379 145.791 116.379 146.652 116.297 147.198H109.424Z" fill="#C9A978"/>
<path d="M131.464 147.198V136H138.419C138.502 136.564 138.502 137.392 138.419 137.955H133.882V140.589H138.254C138.337 141.152 138.337 141.964 138.254 142.51H133.882V145.244H138.419C138.502 145.791 138.502 146.652 138.419 147.198H131.464Z" fill="#C9A978"/>
<path d="M152.494 144.73C152.494 146.669 150.971 147.397 148.437 147.397C147.426 147.397 146.168 147.331 145.026 147.149C144.926 146.586 144.926 145.691 145.026 145.128C146.334 145.294 147.411 145.376 148.404 145.376C149.331 145.376 150.093 145.244 150.093 144.365V143.819C150.093 143.091 149.877 143.024 148.933 142.726L146.599 141.964C145.589 141.633 144.993 141.102 144.993 139.545V138.435C144.993 136.481 146.665 135.769 149.116 135.769C150.192 135.769 151.136 135.834 152.378 136.1C152.494 136.646 152.494 137.508 152.378 138.054C151.086 137.839 150.225 137.773 149.182 137.773C148.156 137.773 147.393 137.889 147.393 138.783V139.247C147.393 139.86 147.642 139.976 148.652 140.324L150.905 141.085C151.93 141.434 152.494 141.881 152.494 143.505V144.73Z" fill="#C9A978"/>
<path d="M161.635 137.955H158.472C158.39 137.409 158.39 136.564 158.472 136H167.215C167.282 136.564 167.282 137.409 167.215 137.955H164.053V147.199C163.374 147.265 162.331 147.265 161.635 147.199V137.955Z" fill="#C9A978"/>
<path d="M176.24 138.8L174.965 142.858H177.498L176.24 138.8ZM178.095 144.781H174.369L173.623 147.199C172.928 147.265 171.852 147.265 171.156 147.199L175.097 136C175.826 135.934 176.704 135.934 177.432 136L181.373 147.199C180.661 147.265 179.569 147.265 178.856 147.199L178.095 144.781Z" fill="#C9A978"/>
<path d="M188.494 137.955H185.331C185.249 137.409 185.249 136.564 185.331 136H194.075C194.141 136.564 194.141 137.409 194.075 137.955H190.912V147.199C190.233 147.265 189.19 147.265 188.494 147.199V137.955Z" fill="#C9A978"/>
<path d="M200.499 147.198V136H207.454C207.537 136.564 207.537 137.392 207.454 137.955H202.917V140.589H207.288C207.371 141.152 207.371 141.964 207.288 142.51H202.917V145.244H207.454C207.537 145.791 207.537 146.652 207.454 147.198H200.499Z" fill="#C9A978"/>
<path d="M126.762 43.2948H129.755V34.524L126.762 33.688V43.2948ZM141.739 60.182H106.189V25.1985L124.122 30.2079V7.88465L152.531 2.54413e-05V20.1963H149.891V3.47415L126.762 9.89278V30.9455L132.396 32.5191V45.9362H124.122V32.9503L108.829 28.6785V57.5406H141.739V60.182Z" fill="#C9A978"/>
<path d="M165.179 27.5491L140.118 35.0494V57.5403H162.544V35.6417L154.537 38.0784V52.9337H151.897V36.1218L165.184 32.0771V60.1818H137.477V33.0828L165.179 24.7921L165.179 27.5491Z" fill="#C9A978"/>
</svg>
